Coordinates
version=1
nRows=27
nColumns=38
inDegrees=no

Units are S.I. units (second, meters, Newtons, ...)
If the header above contains a line with 'inDegrees', this indicates whether rotational values are in degrees (yes) or radians (no).

endheader
time	pelvis_tilt	pelvis_list	pelvis_rotation	pelvis_tx	pelvis_ty	pelvis_tz	hip_flexion_r	hip_adduction_r	hip_rotation_r	knee_angle_r	ankle_angle_r	subtalar_angle_r	mtp_angle_r	hip_flexion_l	hip_adduction_l	hip_rotation_l	knee_angle_l	ankle_angle_l	subtalar_angle_l	mtp_angle_l	lumbar_extension	lumbar_bending	lumbar_rotation	arm_flex_r	arm_add_r	arm_rot_r	elbow_flex_r	pro_sup_r	wrist_flex_r	wrist_dev_r	arm_flex_l	arm_add_l	arm_rot_l	elbow_flex_l	pro_sup_l	wrist_flex_l	wrist_dev_l
0	-1.04688	1.46417	-0.431357	0.904809	1.60039	0.921139	0.253412	0.0472164	-0.310756	0.334813	0.0907191	0	0	0.00822619	-0.287024	-0.128246	1.05146	-0.0914063	0	0	-0.133815	0.142788	-0.186141	-0.2353	-0.265085	-0.00665083	0.882142	0.443091	0	0	-0.105541	-0.334148	0.14108	0.713992	1.39127	0	0
0.01	-1.01891	1.46541	-0.466247	0.902638	1.59083	0.923151	0.236845	0.052736	-0.293631	0.327575	0.0939081	0	0	0.0327134	-0.284158	-0.119716	1.08926	-0.0769549	0	0	-0.138872	0.139926	-0.175159	-0.236254	-0.264206	-0.00992302	0.879552	0.441166	0	0	-0.106832	-0.331169	0.153673	0.71164	1.38084	0	0
0.02	-0.977378	1.46746	-0.514198	0.900424	1.58104	0.925315	0.219281	0.0548976	-0.283818	0.3214	0.0985801	0	0	0.054886	-0.279242	-0.112369	1.12176	-0.0544637	0	0	-0.144252	0.134831	-0.166335	-0.23626	-0.262361	-0.0115178	0.874677	0.439331	0	0	-0.110797	-0.328877	0.163862	0.71188	1.37601	0	0
0.03	-0.930678	1.47034	-0.56674	0.898274	1.57134	0.927489	0.201093	0.0553344	-0.276205	0.313512	0.102816	0	0	0.0767596	-0.272727	-0.106319	1.14835	-0.0304021	0	0	-0.149318	0.128328	-0.158996	-0.235849	-0.260035	-0.0122231	0.869012	0.438213	0	0	-0.115545	-0.327089	0.173486	0.712889	1.3754	0	0
0.04	-0.885478	1.4736	-0.61752	0.89624	1.56176	0.929587	0.182334	0.0554823	-0.268385	0.30273	0.10601	0	0	0.0987515	-0.265659	-0.101877	1.16861	-0.00927337	0	0	-0.153577	0.121332	-0.152384	-0.235434	-0.25784	-0.0120285	0.863106	0.436899	0	0	-0.120333	-0.324841	0.181079	0.71341	1.3756	0	0
0.05	-0.8434	1.47711	-0.664521	0.894418	1.55236	0.931559	0.16412	0.0550963	-0.261394	0.291246	0.109041	0	0	0.121347	-0.258214	-0.0980193	1.18384	0.00866269	0	0	-0.157025	0.114469	-0.146202	-0.236069	-0.255787	-0.0121855	0.858523	0.435659	0	0	-0.124458	-0.32176	0.186521	0.712823	1.3769	0	0
0.06	-0.806866	1.48088	-0.705304	0.892691	1.54306	0.93336	0.146739	0.0545205	-0.255282	0.279362	0.112378	0	0	0.144715	-0.251158	-0.0952664	1.19433	0.0245351	0	0	-0.159382	0.107799	-0.140684	-0.237528	-0.253454	-0.0127993	0.854602	0.433556	0	0	-0.128484	-0.319066	0.193072	0.713146	1.37934	0	0
0.07	-0.770787	1.48488	-0.745161	0.891091	1.53391	0.934998	0.130042	0.0534118	-0.250106	0.267553	0.116016	0	0	0.168409	-0.244097	-0.0940936	1.20031	0.0383171	0	0	-0.161197	0.101153	-0.135939	-0.239478	-0.251242	-0.0132578	0.851853	0.430585	0	0	-0.132579	-0.31662	0.19947	0.714346	1.38238	0	0
0.08	-0.734236	1.48906	-0.785437	0.889597	1.52487	0.936468	0.113807	0.0519304	-0.245497	0.255358	0.119327	0	0	0.192051	-0.237005	-0.0950001	1.20175	0.050653	0	0	-0.162624	0.0945799	-0.131295	-0.242117	-0.249602	-0.012974	0.850514	0.427179	0	0	-0.136469	-0.314104	0.205015	0.715286	1.38533	0	0
0.09	-0.704596	1.49307	-0.818553	0.888211	1.51585	0.937785	0.0976597	0.0509601	-0.241896	0.241676	0.121472	0	0	0.21561	-0.230818	-0.0975522	1.19944	0.064585	0	0	-0.163224	0.0888359	-0.126636	-0.245573	-0.248442	-0.0126192	0.849781	0.422885	0	0	-0.140217	-0.31124	0.210119	0.715839	1.38749	0	0
0.1	-0.662906	1.49649	-0.864359	0.886815	1.50686	0.93906	0.0813337	0.0494562	-0.23822	0.229389	0.124028	0	0	0.236771	-0.225151	-0.103125	1.19292	0.0804707	0	0	-0.164509	0.0827841	-0.120959	-0.24955	-0.247289	-0.0131449	0.849552	0.418365	0	0	-0.143543	-0.30868	0.215901	0.716771	1.38936	0	0
0.11	-0.604542	1.49912	-0.927788	0.885399	1.49794	0.940329	0.0636976	0.0476294	-0.232899	0.216348	0.126185	0	0	0.255209	-0.219736	-0.11213	1.1818	0.096304	0	0	-0.167035	0.0761409	-0.113879	-0.253819	-0.24615	-0.0144763	0.849926	0.412508	0	0	-0.146188	-0.306771	0.222926	0.717926	1.39053	0	0
0.12	-0.536254	1.5008	-1.00078	0.884088	1.48902	0.941569	0.0443408	0.0459315	-0.227084	0.201533	0.127516	0	0	0.271558	-0.214581	-0.123136	1.16629	0.110516	0	0	-0.170738	0.0696014	-0.108286	-0.256967	-0.245625	-0.0141214	0.850086	0.408133	0	0	-0.149731	-0.304435	0.22666	0.719569	1.39142	0	0
0.13	-0.461179	1.50188	-1.08004	0.882852	1.48014	0.942659	0.025431	0.0437371	-0.22177	0.188482	0.129123	0	0	0.286468	-0.209303	-0.13505	1.14757	0.122945	0	0	-0.174374	0.0627977	-0.102191	-0.260711	-0.244612	-0.0155923	0.850185	0.404849	0	0	-0.151755	-0.30254	0.232208	0.720175	1.3909	0	0
0.14	-0.380679	1.50194	-1.16497	0.881693	1.47132	0.943658	0.00636029	0.0412592	-0.215697	0.176407	0.130743	0	0	0.299143	-0.204096	-0.148537	1.12489	0.131692	0	0	-0.179141	0.0560789	-0.096441	-0.263657	-0.243919	-0.0169753	0.850501	0.402217	0	0	-0.153984	-0.300575	0.23637	0.721414	1.38871	0	0
0.15	-0.299147	1.50066	-1.251	0.880618	1.46246	0.944606	-0.0143443	0.0390892	-0.208117	0.163041	0.131471	0	0	0.309167	-0.198921	-0.163033	1.09803	0.138805	0	0	-0.185226	0.0496269	-0.0921879	-0.265177	-0.244133	-0.016446	0.850848	0.399554	0	0	-0.157494	-0.298175	0.237662	0.723588	1.38596	0	0
0.16	-0.235003	1.49795	-1.32013	0.879647	1.4536	0.945601	-0.0377988	0.0373348	-0.186278	0.146263	0.123367	0	0	0.316593	-0.195147	-0.179575	1.06694	0.145733	0	0	-0.192494	0.0447396	-0.0888265	-0.265045	-0.24499	-0.0154313	0.850484	0.397578	0	0	-0.161646	-0.294397	0.23549	0.724836	1.38715	0	0
0.17	-0.178429	1.49564	-1.38221	0.8783	1.44437	0.946188	-0.0677117	0.0408272	-0.165618	0.111984	0.11978	0	0	0.322686	-0.193066	-0.199792	1.03294	0.154168	0	0	-0.197438	0.0388181	-0.0839666	-0.266714	-0.244016	-0.0172647	0.849772	0.397097	0	0	-0.166332	-0.292392	0.23463	0.72651	1.38759	0	0
0.18	-0.0846952	1.49633	-1.47721	0.87668	1.43515	0.946218	-0.0744634	0.0333162	-0.180766	0.123254	0.135817	0	0	0.330914	-0.200021	-0.221791	0.996303	0.16998	0	0	-0.198905	0.0286995	-0.0821603	-0.269367	-0.242068	-0.0189426	0.849855	0.396597	0	0	-0.169438	-0.291529	0.234035	0.726837	1.38712	0	0
0.19	-0.0632574	1.49537	-1.50429	0.876813	1.42666	0.946232	-0.0910278	0.0312679	-0.179355	0.112953	0.142128	0	0	0.339851	-0.183116	-0.236764	0.958489	0.16787	0	0	-0.202656	0.02716	-0.0781328	-0.269019	-0.24347	-0.0210013	0.850125	0.396004	0	0	-0.172306	-0.2877	0.234448	0.727074	1.38604	0	0
0.2	-0.0220757	1.49357	-1.54803	0.87621	1.41776	0.94619	-0.110323	0.0296919	-0.173298	0.100049	0.145145	0	0	0.344856	-0.178922	-0.256585	0.915662	0.170935	0	0	-0.206761	0.0227661	-0.0761812	-0.269601	-0.242931	-0.0233339	0.850893	0.39679	0	0	-0.174328	-0.28547	0.234962	0.726253	1.3828	0	0
0.21	0.00230104	1.49291	-1.57385	0.875781	1.40886	0.945833	-0.127243	0.0288999	-0.170039	0.0894676	0.149114	0	0	0.350851	-0.175175	-0.276092	0.87081	0.172621	0	0	-0.209451	0.0198316	-0.0751521	-0.270016	-0.242446	-0.0253775	0.851653	0.398049	0	0	-0.175959	-0.283279	0.23606	0.724934	1.38123	0	0
0.22	0.0222241	1.49266	-1.59459	0.875445	1.39996	0.945267	-0.14402	0.0284049	-0.166609	0.0782748	0.15279	0	0	0.356227	-0.17098	-0.296015	0.823193	0.173295	0	0	-0.211568	0.0171476	-0.0749041	-0.269806	-0.241429	-0.0277822	0.852364	0.397788	0	0	-0.177548	-0.281415	0.236834	0.723313	1.37958	0	0
0.23	0.0343053	1.49319	-1.60637	0.87527	1.39105	0.94446	-0.160591	0.0288085	-0.163829	0.0662483	0.156388	0	0	0.361945	-0.166528	-0.315646	0.774097	0.17388	0	0	-0.212742	0.0152173	-0.0758772	-0.269191	-0.240355	-0.0295924	0.852959	0.397056	0	0	-0.179093	-0.279684	0.237131	0.721194	1.37752	0	0
0.24	0.0519053	1.49336	-1.62348	0.87529	1.38216	0.943597	-0.178308	0.0286608	-0.160015	0.05307	0.15951	0	0	0.365484	-0.160289	-0.33641	0.721083	0.173904	0	0	-0.214623	0.013041	-0.0771694	-0.268048	-0.239542	-0.0307537	0.853384	0.397893	0	0	-0.179833	-0.277785	0.237524	0.718325	1.37474	0	0
0.25	0.0694016	1.49399	-1.63995	0.875423	1.37322	0.942586	-0.195035	0.0283501	-0.157178	0.0409129	0.162938	0	0	0.368057	-0.152619	-0.356977	0.664866	0.174075	0	0	-0.215834	0.0108228	-0.0790226	-0.266476	-0.238675	-0.0310746	0.852362	0.401889	0	0	-0.18025	-0.276171	0.238788	0.715377	1.37214	0	0
0.26	0.08672	1.49567	-1.65536	0.875739	1.36421	0.941349	-0.209914	0.0280805	-0.156187	0.0304042	0.167295	0	0	0.370614	-0.143453	-0.376207	0.606218	0.174663	0	0	-0.215716	0.00882959	-0.0814777	-0.264848	-0.237588	-0.0313542	0.851247	0.404908	0	0	-0.180291	-0.274802	0.241351	0.712035	1.37153	0	0
